<svg width="51" height="51" viewBox="0 0 51 51" fill="none" xmlns="http://www.w3.org/2000/svg">
<path d="M25.5 2.63086C31.6418 2.63086 37.4231 5.02268 41.774 9.37364C46.125 13.7246 48.5168 19.4938 48.5168 25.6477C48.5168 31.8015 46.125 37.5708 41.774 41.9217C37.4231 46.2727 31.6538 48.6645 25.5 48.6645C19.3462 48.6645 13.5769 46.2727 9.22596 41.9217C4.88702 37.5708 2.48317 31.7895 2.48317 25.6477C2.48317 19.5059 4.875 13.7246 9.22596 9.37364C13.5769 5.0347 19.3582 2.63086 25.5 2.63086ZM25.5 0.647682C11.6899 0.647682 0.5 11.8376 0.5 25.6477C0.5 39.4578 11.6899 50.6477 25.5 50.6477C39.3101 50.6477 50.5 39.4578 50.5 25.6477C50.5 11.8376 39.3101 0.647682 25.5 0.647682Z" fill="#FFFF00"/>
<path d="M36.8637 14.284L9.96973 25.81H25.3222V41.178L36.8637 14.284Z" fill="#FFFF00"/>
</svg>
