<svg width="51" height="50" viewBox="0 0 51 50" fill="none" xmlns="http://www.w3.org/2000/svg">
<path d="M48.9375 14.1375V10.8625H45.1063V4.10156C45.1003 3.45496 44.838 2.83713 44.377 2.38367C43.916 1.93021 43.294 1.67815 42.6474 1.68281H8.35264C7.70602 1.67815 7.08397 1.93021 6.62298 2.38367C6.162 2.83713 5.89974 3.45496 5.89375 4.10156V46.0937C5.89974 46.7404 6.162 47.3582 6.62298 47.8116C7.08397 48.2651 7.70602 48.5172 8.35264 48.5125H42.6474C43.294 48.5172 43.916 48.2651 44.377 47.8116C44.838 47.3582 45.1003 46.7404 45.1063 46.0937V39.1375H48.9375V35.8625H45.1063V26.6375H48.9375V23.3625H45.1063V14.1375H48.9375ZM41.8313 23.3625H37.2188V26.6375H41.8313V35.8625H37.2188V39.1375H41.8313V45.2375H9.16875V4.95781H41.8313V10.8625H37.2188V14.1375H41.8313V23.3625Z" fill="#FFFF00"/>
<path d="M31.1288 29.9731L28.3217 28.1484L29.6713 24.8618V19.6986C29.6713 17.9966 28.9952 16.3644 27.7917 15.1609C26.5882 13.9574 24.9559 13.2812 23.2539 13.2812C21.5519 13.2812 19.9196 13.9574 18.7161 15.1609C17.5126 16.3644 16.8365 17.9966 16.8365 19.6986V24.8312L18.0788 28.2183L15.379 29.9731C14.7076 30.4078 14.1559 31.0038 13.7744 31.7068C13.3929 32.4097 13.1938 33.1972 13.1953 33.997V39.0625H33.3125V33.997C33.314 33.1972 33.1149 32.4097 32.7334 31.7068C32.3519 31.0038 31.8002 30.4078 31.1288 29.9731V29.9731ZM30.1875 35.9375H16.3203V33.997C16.3198 33.718 16.3892 33.4433 16.5223 33.1981C16.6554 32.9529 16.8478 32.745 17.082 32.5934L21.8704 29.4809L19.9615 24.2758V19.6986C19.9615 18.8254 20.3084 17.988 20.9258 17.3706C21.5433 16.7531 22.3807 16.4063 23.2539 16.4062C24.1271 16.4063 24.9645 16.7531 25.582 17.3706C26.1994 17.988 26.5463 18.8254 26.5463 19.6986V24.2452L24.4467 29.3572L29.4258 32.5934C29.66 32.745 29.8524 32.9529 29.9855 33.1981C30.1186 33.4433 30.188 33.718 30.1875 33.997V35.9375Z" fill="#FFFF00"/>
</svg>
